<mxfile host="65bd71144e">
    <diagram id="D3sRz6WudV78egM3DdaS" name="Page-1">
        <mxGraphModel dx="1893" dy="1064" grid="1" gridSize="10" guides="1" tooltips="1" connect="1" arrows="1" fold="1" page="1" pageScale="1" pageWidth="827" pageHeight="1169" background="#ffffff" math="0" shadow="0">
            <root>
                <mxCell id="0"/>
                <mxCell id="1" parent="0"/>
                <mxCell id="30" value="" style="edgeStyle=none;html=1;exitX=0.75;exitY=0;exitDx=0;exitDy=0;" parent="1" source="69" target="29" edge="1">
                    <mxGeometry relative="1" as="geometry">
                        <mxPoint x="251" y="1418" as="sourcePoint"/>
                    </mxGeometry>
                </mxCell>
                <mxCell id="99" value="1" style="edgeLabel;html=1;align=center;verticalAlign=middle;resizable=0;points=[];" parent="30" vertex="1" connectable="0">
                    <mxGeometry x="0.6515" y="-3" relative="1" as="geometry">
                        <mxPoint x="4" y="5" as="offset"/>
                    </mxGeometry>
                </mxCell>
                <mxCell id="32" value="" style="edgeStyle=none;html=1;exitX=0.5;exitY=0;exitDx=0;exitDy=0;entryX=0;entryY=0.5;entryDx=0;entryDy=0;" parent="1" source="69" target="31" edge="1">
                    <mxGeometry relative="1" as="geometry">
                        <mxPoint x="224" y="1322.636363636364" as="sourcePoint"/>
                    </mxGeometry>
                </mxCell>
                <mxCell id="33" value="&lt;span style=&quot;color: rgb(0, 0, 0);&quot;&gt;1&lt;/span&gt;" style="edgeLabel;html=1;align=center;verticalAlign=middle;resizable=0;points=[];" parent="32" vertex="1" connectable="0">
                    <mxGeometry x="0.6079" y="2" relative="1" as="geometry">
                        <mxPoint x="20" y="12" as="offset"/>
                    </mxGeometry>
                </mxCell>
                <mxCell id="29" value="&lt;div&gt;&amp;lt;&amp;lt;Enum&amp;gt;&amp;gt;&lt;/div&gt;State_desgination" style="whiteSpace=wrap;html=1;rounded=0;" parent="1" vertex="1">
                    <mxGeometry x="330" y="1310" width="120" height="60" as="geometry"/>
                </mxCell>
                <mxCell id="187" value="" style="edgeStyle=none;html=1;" parent="1" source="192" target="191" edge="1">
                    <mxGeometry relative="1" as="geometry">
                        <mxPoint x="434" y="1260" as="targetPoint"/>
                    </mxGeometry>
                </mxCell>
                <mxCell id="194" value="1" style="edgeLabel;html=1;align=center;verticalAlign=middle;resizable=0;points=[];" parent="187" vertex="1" connectable="0">
                    <mxGeometry x="0.7667" y="1" relative="1" as="geometry">
                        <mxPoint x="5" y="11" as="offset"/>
                    </mxGeometry>
                </mxCell>
                <mxCell id="31" value="&lt;span style=&quot;font-weight: normal;&quot;&gt;&amp;lt;&amp;lt;vo&amp;gt;&amp;gt;&lt;/span&gt;&lt;div&gt;&lt;span style=&quot;font-weight: normal;&quot;&gt;Current_State&lt;/span&gt;&lt;/div&gt;" style="whiteSpace=wrap;html=1;rounded=0;fontStyle=1" parent="1" vertex="1">
                    <mxGeometry x="330" y="1240" width="120" height="60" as="geometry"/>
                </mxCell>
                <mxCell id="49" value="" style="edgeStyle=none;html=1;" parent="1" source="47" target="48" edge="1">
                    <mxGeometry relative="1" as="geometry"/>
                </mxCell>
                <mxCell id="54" value="" style="edgeStyle=none;html=1;" parent="1" source="47" target="53" edge="1">
                    <mxGeometry relative="1" as="geometry"/>
                </mxCell>
                <mxCell id="130" value="1" style="edgeLabel;html=1;align=center;verticalAlign=middle;resizable=0;points=[];" parent="54" vertex="1" connectable="0">
                    <mxGeometry x="0.4044" y="-5" relative="1" as="geometry">
                        <mxPoint x="-1" y="8" as="offset"/>
                    </mxGeometry>
                </mxCell>
                <mxCell id="56" value="" style="edgeStyle=none;html=1;" parent="1" source="47" target="55" edge="1">
                    <mxGeometry relative="1" as="geometry"/>
                </mxCell>
                <mxCell id="108" value="0..1" style="edgeLabel;html=1;align=center;verticalAlign=middle;resizable=0;points=[];" parent="56" vertex="1" connectable="0">
                    <mxGeometry x="0.6006" relative="1" as="geometry">
                        <mxPoint y="17" as="offset"/>
                    </mxGeometry>
                </mxCell>
                <mxCell id="61" value="" style="edgeStyle=none;html=1;" parent="1" source="47" target="60" edge="1">
                    <mxGeometry relative="1" as="geometry"/>
                </mxCell>
                <mxCell id="103" value="0..1" style="edgeLabel;html=1;align=center;verticalAlign=middle;resizable=0;points=[];" parent="61" vertex="1" connectable="0">
                    <mxGeometry x="0.7109" y="-1" relative="1" as="geometry">
                        <mxPoint x="-7" y="9" as="offset"/>
                    </mxGeometry>
                </mxCell>
                <mxCell id="87" value="" style="edgeStyle=none;html=1;" parent="1" source="47" target="48" edge="1">
                    <mxGeometry relative="1" as="geometry"/>
                </mxCell>
                <mxCell id="122" value="1" style="edgeLabel;html=1;align=center;verticalAlign=middle;resizable=0;points=[];" parent="87" vertex="1" connectable="0">
                    <mxGeometry x="0.5031" relative="1" as="geometry">
                        <mxPoint x="6" y="2" as="offset"/>
                    </mxGeometry>
                </mxCell>
                <mxCell id="124" style="edgeStyle=none;html=1;" parent="1" source="47" target="51" edge="1">
                    <mxGeometry relative="1" as="geometry"/>
                </mxCell>
                <mxCell id="125" value="1" style="edgeLabel;html=1;align=center;verticalAlign=middle;resizable=0;points=[];" parent="124" vertex="1" connectable="0">
                    <mxGeometry x="0.6666" relative="1" as="geometry">
                        <mxPoint x="14" y="10" as="offset"/>
                    </mxGeometry>
                </mxCell>
                <mxCell id="127" value="" style="edgeStyle=none;html=1;" parent="1" source="47" target="126" edge="1">
                    <mxGeometry relative="1" as="geometry"/>
                </mxCell>
                <mxCell id="129" value="1" style="edgeLabel;html=1;align=center;verticalAlign=middle;resizable=0;points=[];" parent="127" vertex="1" connectable="0">
                    <mxGeometry x="0.5535" y="4" relative="1" as="geometry">
                        <mxPoint x="-8" y="20" as="offset"/>
                    </mxGeometry>
                </mxCell>
                <mxCell id="47" value="&amp;lt;&amp;lt;root&amp;gt;&amp;gt;&lt;div&gt;&amp;lt;&amp;lt;entitty&amp;gt;&amp;gt;&lt;/div&gt;&lt;div&gt;WebPageTemplate&lt;/div&gt;" style="rounded=0;whiteSpace=wrap;html=1;strokeColor=light-dark(#fb0404, #ededed);" parent="1" vertex="1">
                    <mxGeometry x="194" y="1770" width="120" height="60" as="geometry"/>
                </mxCell>
                <mxCell id="48" value="&amp;lt;&amp;lt;Vo&amp;gt;&amp;gt;&lt;div&gt;Title&lt;/div&gt;" style="whiteSpace=wrap;html=1;rounded=0;" parent="1" vertex="1">
                    <mxGeometry x="84" y="1880" width="126" height="60" as="geometry"/>
                </mxCell>
                <mxCell id="51" value="&lt;div&gt;&amp;lt;&amp;lt;Vo&amp;gt;&amp;gt;&lt;/div&gt;Student_Name" style="whiteSpace=wrap;html=1;rounded=0;" parent="1" vertex="1">
                    <mxGeometry x="144" y="2010" width="120" height="60" as="geometry"/>
                </mxCell>
                <mxCell id="53" value="&amp;lt;&amp;lt;Vo&amp;gt;&amp;gt;&lt;div&gt;Text_Content/Body&lt;/div&gt;" style="whiteSpace=wrap;html=1;rounded=0;" parent="1" vertex="1">
                    <mxGeometry x="384" y="1920" width="120" height="60" as="geometry"/>
                </mxCell>
                <mxCell id="55" value="&amp;lt;&amp;lt;Vo&amp;gt;&amp;gt;&lt;div&gt;Image&lt;/div&gt;" style="whiteSpace=wrap;html=1;rounded=0;" parent="1" vertex="1">
                    <mxGeometry x="454" y="1850" width="120" height="60" as="geometry"/>
                </mxCell>
                <mxCell id="58" value="WebPageTemplate" style="shape=umlFrame;whiteSpace=wrap;html=1;pointerEvents=0;strokeColor=light-dark(#ff0a0a, #ededed);width=116;height=50;" parent="1" vertex="1">
                    <mxGeometry x="74" y="1720" width="536" height="410" as="geometry"/>
                </mxCell>
                <mxCell id="60" value="&amp;lt;&amp;lt;Vo&amp;gt;&amp;gt;&lt;div&gt;Video&lt;/div&gt;" style="whiteSpace=wrap;html=1;strokeColor=light-dark(#000000,#EDEDED);rounded=0;" parent="1" vertex="1">
                    <mxGeometry x="474" y="1770" width="120" height="60" as="geometry"/>
                </mxCell>
                <mxCell id="65" value="&lt;span style=&quot;font-weight: normal;&quot;&gt;Note: &lt;br&gt;The current state is just one of the atributes on a log relevant to bussines :&lt;br&gt;&lt;span&gt;Log&lt;/span&gt; contains the following attributes:&lt;/span&gt;&lt;div&gt;&lt;span style=&quot;font-weight: normal;&quot;&gt;data&lt;/span&gt;&lt;/div&gt;&lt;div&gt;&lt;span style=&quot;font-weight: normal;&quot;&gt;event&lt;/span&gt;&lt;/div&gt;&lt;div&gt;&lt;span style=&quot;font-weight: normal;&quot;&gt;start_status&lt;/span&gt;&lt;/div&gt;&lt;div&gt;&lt;span style=&quot;font-weight: normal;&quot;&gt;end_status&lt;/span&gt;&lt;/div&gt;&lt;div&gt;&lt;span style=&quot;font-weight: normal;&quot;&gt;current_status&lt;/span&gt;&lt;/div&gt;&lt;div&gt;&lt;span style=&quot;font-weight: normal;&quot;&gt;user&lt;/span&gt;&lt;/div&gt;" style="shape=note;whiteSpace=wrap;html=1;backgroundOutline=1;darkOpacity=0.05;fontStyle=1" parent="1" vertex="1">
                    <mxGeometry x="490" y="1230" width="239" height="160" as="geometry"/>
                </mxCell>
                <mxCell id="66" value="either add or podcast" style="shape=note;whiteSpace=wrap;html=1;backgroundOutline=1;darkOpacity=0.05;" parent="1" vertex="1">
                    <mxGeometry x="333" y="1670" width="161" height="30" as="geometry"/>
                </mxCell>
                <mxCell id="67" value="&amp;nbsp;News/add" style="shape=umlFrame;whiteSpace=wrap;html=1;pointerEvents=0;strokeColor=#FF300D;width=70;height=31;" parent="1" vertex="1">
                    <mxGeometry x="74" y="1219" width="720" height="361" as="geometry"/>
                </mxCell>
                <mxCell id="181" style="edgeStyle=none;html=1;" parent="1" source="69" target="47" edge="1">
                    <mxGeometry relative="1" as="geometry"/>
                </mxCell>
                <mxCell id="182" value="0..1" style="edgeLabel;html=1;align=center;verticalAlign=middle;resizable=0;points=[];" parent="181" vertex="1" connectable="0">
                    <mxGeometry x="0.7664" y="-1" relative="1" as="geometry">
                        <mxPoint x="33" y="12" as="offset"/>
                    </mxGeometry>
                </mxCell>
                <mxCell id="183" style="edgeStyle=none;html=1;entryX=0.75;entryY=0;entryDx=0;entryDy=0;" parent="1" source="69" target="94" edge="1">
                    <mxGeometry relative="1" as="geometry">
                        <Array as="points">
                            <mxPoint x="520" y="1500"/>
                            <mxPoint x="690" y="1570"/>
                            <mxPoint x="776" y="1660"/>
                            <mxPoint x="800" y="1760"/>
                        </Array>
                    </mxGeometry>
                </mxCell>
                <mxCell id="185" value="0..1" style="edgeLabel;html=1;align=center;verticalAlign=middle;resizable=0;points=[];" parent="183" vertex="1" connectable="0">
                    <mxGeometry x="0.9149" y="-2" relative="1" as="geometry">
                        <mxPoint x="-8" y="14" as="offset"/>
                    </mxGeometry>
                </mxCell>
                <mxCell id="262" style="edgeStyle=none;html=1;" parent="1" source="69" target="261" edge="1">
                    <mxGeometry relative="1" as="geometry"/>
                </mxCell>
                <mxCell id="263" value="1" style="edgeLabel;html=1;align=center;verticalAlign=middle;resizable=0;points=[];" parent="262" vertex="1" connectable="0">
                    <mxGeometry x="0.4641" y="-3" relative="1" as="geometry">
                        <mxPoint as="offset"/>
                    </mxGeometry>
                </mxCell>
                <mxCell id="69" value="&amp;lt;&amp;lt;root&amp;gt;&amp;gt;&lt;div&gt;&amp;lt;&amp;lt;entitty&amp;gt;&amp;gt;&lt;/div&gt;&lt;div&gt;News/add&lt;/div&gt;" style="rounded=0;whiteSpace=wrap;html=1;strokeColor=#FF300D;" parent="1" vertex="1">
                    <mxGeometry x="134" y="1390" width="120" height="60" as="geometry"/>
                </mxCell>
                <mxCell id="116" style="edgeStyle=none;html=1;" parent="1" source="85" target="209" edge="1">
                    <mxGeometry relative="1" as="geometry">
                        <Array as="points"/>
                        <mxPoint x="530" y="990" as="targetPoint"/>
                    </mxGeometry>
                </mxCell>
                <mxCell id="212" value="..*" style="edgeLabel;html=1;align=center;verticalAlign=middle;resizable=0;points=[];" parent="116" vertex="1" connectable="0">
                    <mxGeometry x="-0.813" y="-7" relative="1" as="geometry">
                        <mxPoint x="186" y="-64" as="offset"/>
                    </mxGeometry>
                </mxCell>
                <mxCell id="135" style="edgeStyle=none;html=1;" parent="1" source="85" target="69" edge="1">
                    <mxGeometry relative="1" as="geometry"/>
                </mxCell>
                <mxCell id="136" value="1" style="edgeLabel;html=1;align=center;verticalAlign=middle;resizable=0;points=[];" parent="135" vertex="1" connectable="0">
                    <mxGeometry x="0.6685" relative="1" as="geometry">
                        <mxPoint x="-22" y="16" as="offset"/>
                    </mxGeometry>
                </mxCell>
                <mxCell id="85" value="&lt;span style=&quot;color: rgb(0, 0, 0);&quot;&gt;&amp;lt;&amp;lt;root&amp;gt;&amp;gt;&lt;/span&gt;&lt;div style=&quot;scrollbar-color: light-dark(#e2e2e2, #4b4b4b)&lt;br/&gt;&#x9;&#x9;&#x9;&#x9;&#x9;light-dark(#fbfbfb, var(--dark-panel-color));&quot;&gt;&amp;lt;&amp;lt;entitty&amp;gt;&amp;gt;&lt;/div&gt;&lt;div style=&quot;scrollbar-color: light-dark(#e2e2e2, #4b4b4b)&lt;br/&gt;&#x9;&#x9;&#x9;&#x9;&#x9;light-dark(#fbfbfb, var(--dark-panel-color));&quot;&gt;Team&lt;/div&gt;" style="whiteSpace=wrap;html=1;rounded=0;strokeColor=#FF300D;" parent="1" vertex="1">
                    <mxGeometry x="130" y="1090" width="120" height="60" as="geometry"/>
                </mxCell>
                <mxCell id="93" value="PodcastTemplate" style="shape=umlFrame;whiteSpace=wrap;html=1;pointerEvents=0;strokeColor=light-dark(#ff0a0a, #ededed);width=100;height=40;" parent="1" vertex="1">
                    <mxGeometry x="670" y="1720" width="406" height="240" as="geometry"/>
                </mxCell>
                <mxCell id="169" style="edgeStyle=none;html=1;" parent="1" source="94" target="168" edge="1">
                    <mxGeometry relative="1" as="geometry"/>
                </mxCell>
                <mxCell id="172" value="1" style="edgeLabel;html=1;align=center;verticalAlign=middle;resizable=0;points=[];" parent="169" vertex="1" connectable="0">
                    <mxGeometry x="0.5706" y="3" relative="1" as="geometry">
                        <mxPoint y="23" as="offset"/>
                    </mxGeometry>
                </mxCell>
                <mxCell id="94" value="&amp;lt;&amp;lt;root&amp;gt;&amp;gt;&lt;div&gt;&amp;lt;&amp;lt;entitty&amp;gt;&amp;gt;&lt;/div&gt;&lt;div&gt;PodcastTemplate&lt;/div&gt;" style="rounded=0;whiteSpace=wrap;html=1;strokeColor=light-dark(#fb0404, #ededed);" parent="1" vertex="1">
                    <mxGeometry x="716" y="1850" width="120" height="60" as="geometry"/>
                </mxCell>
                <mxCell id="96" value="Product Owner,did not give us enough information about podcast acordeer ti only have URL" style="shape=note;whiteSpace=wrap;html=1;backgroundOutline=1;darkOpacity=0.05;size=15;" parent="1" vertex="1">
                    <mxGeometry x="860" y="1730" width="170" height="90" as="geometry"/>
                </mxCell>
                <mxCell id="126" value="&amp;lt;&amp;lt;Vo&amp;gt;&amp;gt;&lt;div&gt;Comment_Section&lt;/div&gt;" style="whiteSpace=wrap;html=1;strokeColor=light-dark(#000000,#EDEDED);rounded=0;" parent="1" vertex="1">
                    <mxGeometry x="308" y="2000" width="120" height="60" as="geometry"/>
                </mxCell>
                <mxCell id="140" value="Removed Type for now" style="shape=note;whiteSpace=wrap;html=1;backgroundOutline=1;darkOpacity=0.05;size=3;" parent="1" vertex="1">
                    <mxGeometry x="364" y="1590" width="80" height="70" as="geometry"/>
                </mxCell>
                <mxCell id="168" value="&amp;lt;&amp;lt;Vo&amp;gt;&amp;gt;&lt;div&gt;&lt;font color=&quot;#000000&quot;&gt;&amp;lt;&amp;lt;Id&amp;gt;&amp;gt;&lt;br&gt;&lt;/font&gt;&lt;div&gt;URL&lt;/div&gt;&lt;/div&gt;" style="whiteSpace=wrap;html=1;rounded=0;" parent="1" vertex="1">
                    <mxGeometry x="872" y="1850" width="120" height="60" as="geometry"/>
                </mxCell>
                <mxCell id="191" value="&amp;lt;&amp;lt;vo&amp;gt;&amp;gt;&lt;div&gt;validatior&lt;/div&gt;" style="whiteSpace=wrap;html=1;rounded=0;" parent="1" vertex="1">
                    <mxGeometry x="574" y="1420" width="120" height="60" as="geometry"/>
                </mxCell>
                <mxCell id="192" value="&amp;lt;&amp;lt;vo&amp;gt;&amp;gt;&lt;div&gt;Feedback_coment&lt;/div&gt;" style="whiteSpace=wrap;html=1;rounded=0;" parent="1" vertex="1">
                    <mxGeometry x="330" y="1380" width="120" height="60" as="geometry"/>
                </mxCell>
                <mxCell id="202" value="Team" style="shape=umlFrame;whiteSpace=wrap;html=1;pointerEvents=0;strokeColor=#FF300D;" parent="1" vertex="1">
                    <mxGeometry x="74" y="1050" width="206" height="140" as="geometry"/>
                </mxCell>
                <mxCell id="203" value="&lt;span style=&quot;color: rgb(0, 0, 0); font-family: Helvetica; font-size: 11px; font-style: normal; font-variant-ligatures: normal; font-variant-caps: normal; font-weight: 400; letter-spacing: normal; orphans: 2; text-align: center; text-indent: 0px; text-transform: none; widows: 2; word-spacing: 0px; -webkit-text-stroke-width: 0px; white-space: nowrap; background-color: rgb(255, 255, 255); text-decoration-thickness: initial; text-decoration-style: initial; text-decoration-color: initial; float: none; display: inline !important;&quot;&gt;1..*&lt;/span&gt;" style="edgeStyle=none;html=1;exitX=1;exitY=0.25;exitDx=0;exitDy=0;" parent="1" source="69" target="192" edge="1">
                    <mxGeometry x="0.7055" y="-16" relative="1" as="geometry">
                        <mxPoint x="324" y="1350" as="targetPoint"/>
                        <mxPoint x="254" y="1405" as="sourcePoint"/>
                        <mxPoint as="offset"/>
                    </mxGeometry>
                </mxCell>
                <mxCell id="211" style="edgeStyle=none;html=1;entryX=0.5;entryY=1;entryDx=0;entryDy=0;" parent="1" source="209" target="229" edge="1">
                    <mxGeometry relative="1" as="geometry">
                        <mxPoint x="440" y="900" as="targetPoint"/>
                    </mxGeometry>
                </mxCell>
                <mxCell id="252" value="1..*" style="edgeLabel;html=1;align=center;verticalAlign=middle;resizable=0;points=[];" parent="211" vertex="1" connectable="0">
                    <mxGeometry x="0.5061" relative="1" as="geometry">
                        <mxPoint x="18" y="-24" as="offset"/>
                    </mxGeometry>
                </mxCell>
                <mxCell id="214" style="edgeStyle=none;html=1;" parent="1" source="209" target="213" edge="1">
                    <mxGeometry relative="1" as="geometry"/>
                </mxCell>
                <mxCell id="218" value="1" style="edgeLabel;html=1;align=center;verticalAlign=middle;resizable=0;points=[];" parent="214" vertex="1" connectable="0">
                    <mxGeometry x="0.0286" relative="1" as="geometry">
                        <mxPoint x="22" y="20" as="offset"/>
                    </mxGeometry>
                </mxCell>
                <mxCell id="209" value="&lt;span style=&quot;scrollbar-color: light-dark(#e2e2e2, #4b4b4b)&lt;br/&gt;&#x9;&#x9;&#x9;&#x9;&#x9;light-dark(#fbfbfb, var(--dark-panel-color)); color: rgb(0, 0, 0);&quot;&gt;&amp;lt;&amp;lt;root&amp;gt;&amp;gt;&lt;/span&gt;&lt;div style=&quot;scrollbar-color: light-dark(#e2e2e2, #4b4b4b)&lt;br/&gt;&#x9;&#x9;&#x9;&#x9;&#x9;light-dark(#fbfbfb, var(--dark-panel-color));&quot;&gt;&amp;lt;&amp;lt;entitty&amp;gt;&amp;gt;&lt;/div&gt;Member" style="whiteSpace=wrap;html=1;rounded=0;strokeColor=light-dark(#FF300D,#EDEDED);" parent="1" vertex="1">
                    <mxGeometry x="415" y="1090" width="120" height="60" as="geometry"/>
                </mxCell>
                <mxCell id="213" value="&lt;div&gt;&amp;lt;&amp;lt;Enum&amp;gt;&amp;gt;&lt;/div&gt;&lt;div&gt;MemberType&lt;/div&gt;" style="whiteSpace=wrap;html=1;rounded=0;strokeColor=#000000;" parent="1" vertex="1">
                    <mxGeometry x="614" y="1090" width="120" height="60" as="geometry"/>
                </mxCell>
                <mxCell id="219" value="&lt;div&gt;&amp;lt;&amp;lt;Enum&amp;gt;&amp;gt;&lt;/div&gt;&lt;div&gt;OrganizationType&lt;/div&gt;" style="whiteSpace=wrap;html=1;rounded=0;strokeColor=#000000;" parent="1" vertex="1">
                    <mxGeometry x="634" y="890" width="120" height="60" as="geometry"/>
                </mxCell>
                <mxCell id="246" value="" style="edgeStyle=none;html=1;" parent="1" source="229" target="219" edge="1">
                    <mxGeometry relative="1" as="geometry"/>
                </mxCell>
                <mxCell id="247" value="1&lt;div&gt;&lt;br&gt;&lt;/div&gt;" style="edgeLabel;html=1;align=center;verticalAlign=middle;resizable=0;points=[];" parent="246" vertex="1" connectable="0">
                    <mxGeometry x="0.5371" y="7" relative="1" as="geometry">
                        <mxPoint as="offset"/>
                    </mxGeometry>
                </mxCell>
                <mxCell id="229" value="&lt;span style=&quot;color: rgb(0, 0, 0);&quot;&gt;&amp;lt;&amp;lt;root&amp;gt;&amp;gt;&lt;/span&gt;&lt;div style=&quot;scrollbar-color: light-dark(#e2e2e2, #4b4b4b)&lt;br/&gt;&#x9;&#x9;&#x9;&#x9;&#x9;light-dark(#fbfbfb, var(--dark-panel-color));&quot;&gt;&amp;lt;&amp;lt;entitty&amp;gt;&amp;gt;&lt;/div&gt;&lt;div style=&quot;scrollbar-color: light-dark(#e2e2e2, #4b4b4b)&lt;br/&gt;&#x9;&#x9;&#x9;&#x9;&#x9;light-dark(#fbfbfb, var(--dark-panel-color));&quot;&gt;Organization&lt;/div&gt;" style="whiteSpace=wrap;html=1;rounded=0;strokeColor=#FF300D;" parent="1" vertex="1">
                    <mxGeometry x="416" y="890" width="120" height="60" as="geometry"/>
                </mxCell>
                <mxCell id="230" value="Organization" style="shape=umlFrame;whiteSpace=wrap;html=1;pointerEvents=0;strokeColor=#FF300D;width=66;height=30;" parent="1" vertex="1">
                    <mxGeometry x="344" y="870" width="426" height="140" as="geometry"/>
                </mxCell>
                <mxCell id="241" value="Member" style="shape=umlFrame;whiteSpace=wrap;html=1;pointerEvents=0;strokeColor=#FF300D;shadow=1;" parent="1" vertex="1">
                    <mxGeometry x="323.5" y="1050" width="436.5" height="140" as="geometry"/>
                </mxCell>
                <mxCell id="251" value="1..*" style="text;html=1;align=center;verticalAlign=middle;resizable=0;points=[];autosize=1;strokeColor=none;fillColor=none;" parent="1" vertex="1">
                    <mxGeometry x="370" y="1120" width="40" height="30" as="geometry"/>
                </mxCell>
                <mxCell id="256" value="Type is either&lt;div&gt;School or Company(NGO)&lt;/div&gt;" style="shape=note;whiteSpace=wrap;html=1;backgroundOutline=1;darkOpacity=0.05;size=0;" parent="1" vertex="1">
                    <mxGeometry x="779" y="890" width="106" height="60" as="geometry"/>
                </mxCell>
                <mxCell id="257" value="Type is either&lt;div&gt;Teacher, Student or Other&lt;/div&gt;" style="shape=note;whiteSpace=wrap;html=1;backgroundOutline=1;darkOpacity=0.05;size=0;" parent="1" vertex="1">
                    <mxGeometry x="778" y="1090" width="106" height="60" as="geometry"/>
                </mxCell>
                <mxCell id="261" value="&lt;span style=&quot;font-weight: normal;&quot;&gt;&amp;lt;&amp;lt;vo&amp;gt;&amp;gt;&lt;/span&gt;&lt;div&gt;&lt;span style=&quot;font-weight: normal;&quot;&gt;Location&lt;/span&gt;&lt;/div&gt;" style="whiteSpace=wrap;html=1;rounded=0;fontStyle=1" parent="1" vertex="1">
                    <mxGeometry x="330" y="1500" width="120" height="60" as="geometry"/>
                </mxCell>
            </root>
        </mxGraphModel>
    </diagram>
</mxfile>